<svg width="28" height="20" viewBox="0 0 28 20" fill="none" xmlns="http://www.w3.org/2000/svg">
<path d="M18 18.9998C17.744 18.9998 17.488 18.9018 17.293 18.7068C16.902 18.3158 16.902 17.6838 17.293 17.2928L23.586 10.9998H2C1.448 10.9998 1 10.5518 1 9.99976C1 9.44776 1.448 8.99976 2 8.99976H23.586L17.293 2.70676C16.902 2.31576 16.902 1.68376 17.293 1.29276C17.684 0.901762 18.316 0.901762 18.707 1.29276L26.707 9.29276C26.804 9.38876 26.876 9.50076 26.925 9.61876C26.973 9.73476 27 9.86276 27 9.99676C27 9.99876 27 10.0008 27 10.0028C27 10.1368 26.973 10.2648 26.925 10.3808C26.876 10.4998 26.804 10.6108 26.707 10.7068L18.707 18.7068C18.512 18.9018 18.256 18.9998 18 18.9998Z" fill="black"/>
</svg>
