<svg width="1210" height="379" viewBox="0 0 1210 379" fill="none" xmlns="http://www.w3.org/2000/svg">
<path fill-rule="evenodd" clip-rule="evenodd" d="M32.6969 -110.791C33.52 -86.219 34.7632 -61.8525 37.5201 -37.8307C38.8096 -25.7943 40.8241 -13.9857 42.8271 -2.16943C44.8185 9.6538 47.098 21.4919 50.2176 33.0437C53.3833 44.5367 57.4008 55.8388 63.0761 65.7014C68.7108 75.5714 75.8426 84.0018 83.9468 90.2516C100.069 103.279 119.627 106.621 137.729 102.949C155.728 99.4976 169.755 88.6653 181.767 75.013C193.884 61.3612 204.388 43.6774 212.791 23.5185C229.61 -16.7177 240.402 -64.3932 245.87 -110.791H279.651C282.011 -82.4075 279.893 -54.6917 275.34 -27.5421C270.579 -0.472727 263.351 26.2068 252.351 51.2934C246.866 63.829 240.482 75.998 232.891 87.2848C225.328 98.5578 216.636 109.191 206.379 117.548C196.197 125.95 184.605 132.199 172.598 135.063C160.672 138.236 148.383 137.787 137.194 135.562C114.988 131.178 94.0825 119.898 76.7748 103.779C59.6109 87.3355 45.0486 67.4124 32.3857 44.97C26.1349 33.7044 20.7132 21.6312 16.3503 9.00701C12.0043 -3.6165 8.97675 -16.8208 6.43855 -30.0762C1.51139 -56.6456 -0.589437 -83.8466 0.141522 -110.791H32.6969Z" fill="#FDFDFD"/>
<path fill-rule="evenodd" clip-rule="evenodd" d="M277.616 -176C278.513 -128.027 283.867 -82.8102 297.398 -45.5059C310.98 -8.46087 331.855 21.5898 356.158 45.8115C368.339 57.7749 381.456 67.5368 395.038 74.8729C408.659 81.9733 422.739 86.413 436.922 88.8735C465.313 94.1722 494.086 91.4401 522.555 85.4937C550.941 79.7001 578.422 69.2202 605.147 58.5991C618.445 52.7935 631.621 47.1651 644.447 40.0762C657.261 32.9403 669.674 24.4386 681.616 14.7357C693.571 5.1383 704.886 -6.30699 715.401 -19.201C726.032 -31.8003 735.661 -46.4726 744.083 -62.581C761.075 -94.5976 772.817 -133.891 775.84 -176H813.744C815.107 -144.336 812.232 -112.307 806.097 -83.1871C800.129 -53.8313 791.01 -27.3607 780.36 -4.03412C758.866 42.8437 730.991 75.7909 702.16 99.0352C673.161 122.174 642.8 135.857 612.49 142.003C582.109 147.502 551.761 143.911 522.381 136.963C493.091 130.393 464.054 122.609 435.119 114.696C406.256 105.618 377.212 98.9646 347.755 84.4455C333.113 76.9449 318.401 66.948 304.709 51.734C291.062 36.5678 278.564 16.326 268.444 -7.81308C258.498 -32.1176 250.864 -60.0012 246.614 -88.9214C242.28 -117.842 240.666 -147.339 241.086 -176H277.615H277.616Z" fill="#FDFDFD"/>
<path fill-rule="evenodd" clip-rule="evenodd" d="M821.473 -175.998C822.421 -118.063 824.03 -60.4826 828.221 -3.83129C830.242 24.5114 833.243 52.4544 836.63 80.1619C840.017 107.857 844.065 135.376 849.662 161.976C855.233 188.553 862.609 214.058 872.28 236.62C881.964 259.087 894.028 278.246 907.655 292.423C921.21 306.801 936.197 316.456 951.609 321.272C967.048 326.006 982.793 326.512 998.343 323.674C1029.22 319.046 1056.03 297.31 1078.14 266.105C1100.43 234.971 1118.65 192.781 1132.85 144.961C1140.09 121.175 1146.19 95.9053 1151.63 69.988C1157.26 44.1528 1161.77 17.3523 1165.9 -9.74255C1174 -63.9675 1179.7 -120.136 1182.7 -175.998H1221.07C1223.81 -113.012 1220.58 -50.6617 1213.59 10.6875C1206.41 71.9426 1195.04 132.326 1177.84 189.06C1169.26 217.414 1159.06 244.698 1146.97 269.779C1134.91 294.813 1120.96 317.952 1104.85 335.898C1088.81 353.937 1070.84 366.925 1052.43 373.201C1034.11 379.949 1015.34 379.984 997.819 375.922C963.006 368.856 928.776 349.05 899.959 314.643C871.306 279.906 847.779 233.299 829.215 180.451C819.976 153.946 812.332 125.662 806.264 96.4825C800.222 67.2443 796.122 37.0647 792.729 6.81374C786.176 -53.7703 783.672 -115.167 784.489 -175.998H821.473Z" fill="#FDFDFD"/>
</svg>
