<svg width="4488" height="1674" viewBox="0 0 4488 1674" xmlns="http://www.w3.org/2000/svg"><title>BackgroundM</title><g fill="#E3DEDE" fill-rule="evenodd"><path d="M120.586 196.936c3.022 74.12 7.587 147.62 17.71 220.08 4.735 36.307 12.132 71.927 19.487 107.57 7.312 35.664 15.682 71.373 27.137 106.218 11.624 34.668 26.376 68.76 47.215 98.51 20.69 29.772 46.877 55.202 76.635 74.054 59.2 39.297 131.015 49.376 197.484 38.3 66.088-10.41 117.594-43.085 161.702-84.266 44.49-41.18 83.06-94.522 113.917-155.33 61.756-121.37 101.384-265.18 121.462-405.136h124.04c8.665 85.617.888 169.22-15.83 251.115-17.48 81.653-44.024 162.13-84.413 237.802-20.14 37.813-43.58 74.52-71.456 108.566-27.77 34.004-59.685 66.08-97.347 91.288-37.39 25.342-79.954 44.194-124.042 52.833-43.79 9.57-88.914 8.217-130 1.505-81.538-13.224-158.3-47.25-221.852-95.873-63.024-49.6-116.495-109.697-162.992-177.393-22.952-33.982-42.86-70.4-58.88-108.48-15.958-38.078-27.075-77.908-36.395-117.892C6.076 360.262-1.638 278.212 1.046 196.936h119.54z"/><path d="M1019.895.236c3.297 144.706 22.956 281.1 72.64 393.626 49.872 111.744 126.52 202.39 215.76 275.453 44.725 36.087 92.89 65.533 142.763 87.662 50.015 21.418 101.714 34.81 153.792 42.232 104.25 15.983 209.9 7.742 314.437-10.195 104.228-17.476 205.135-49.088 303.268-81.126 48.83-17.512 97.208-34.49 144.306-55.873 47.05-21.525 92.632-47.17 136.48-76.438 43.897-28.95 85.446-63.474 124.054-102.368 39.035-38.005 74.394-82.263 105.318-130.853C2795.106 245.78 2838.22 127.253 2849.32.235H2988.5c5.004 95.512-5.55 192.125-28.078 279.964-21.913 88.55-55.398 168.397-94.504 238.76-78.924 141.404-181.278 240.787-287.142 310.902-106.48 69.796-217.965 111.07-329.26 129.61-111.555 16.588-222.99 5.755-330.87-15.202-107.55-19.82-214.17-43.298-320.415-67.167-105.982-27.385-212.628-47.454-320.793-91.25-53.762-22.625-107.784-52.78-158.06-98.672-50.11-45.748-96-106.806-133.16-179.62-36.52-73.313-64.552-157.422-80.157-244.658-15.913-87.236-21.84-176.212-20.3-262.666h134.132z"/><path d="M3016.876.236c3.482 174.756 9.388 348.445 24.778 519.33 7.42 85.494 18.44 169.782 30.877 253.36 12.438 83.54 27.3 166.55 47.853 246.787 20.456 80.168 47.54 157.103 83.05 225.158 35.56 67.772 79.857 125.562 129.894 168.327 49.772 43.37 104.803 72.495 161.394 87.022 56.688 14.278 114.504 15.806 171.6 7.245 113.374-13.96 211.84-79.527 292.992-173.654 81.874-93.912 148.766-221.178 200.915-365.422 26.58-71.75 48.956-147.974 68.957-226.152 20.648-77.93 37.215-158.772 52.39-240.502 29.723-163.566 50.66-332.994 61.68-501.498h140.915c10.035 189.993-1.802 378.068-27.47 563.124-26.362 184.772-68.115 366.916-131.285 538.048-31.5 85.53-68.956 167.83-113.35 243.485-44.275 75.514-95.488 145.31-154.672 199.442-58.872 54.415-124.852 93.593-192.463 112.525-67.276 20.352-136.185 20.46-200.53 8.205-127.83-21.312-253.52-81.055-359.333-184.843-105.21-104.782-191.6-245.368-259.763-404.78-33.926-79.953-61.994-165.27-84.275-253.287-22.186-88.195-37.24-179.23-49.7-270.48-24.06-182.748-33.255-367.946-30.254-551.44h135.8z"/></g></svg>
