<svg id="Layer_1" data-name="Layer 1" xmlns="http://www.w3.org/2000/svg" viewBox="0 0 394.04 222.31"><title>vertical-lockup</title><path d="M234.6,0s-1.8,13.9-6.24,25.19c-3.12,7.92-9.74,26.33-26.72,34-3.42,1.55-12.05,5.32-22,2.57a29.08,29.08,0,0,1-15.32-10.32c-9-12.37-9.19-38.58-9.19-49.12V0H138.24V113.42h16.2V48.29a53.34,53.34,0,0,0,14.78,14.88,48,48,0,0,0,17.58,7.78,46.07,46.07,0,0,0,15.79.65,45.89,45.89,0,0,0,25.76-13.08,47.2,47.2,0,0,0,7.11-9v64h16.2V0Z" style="fill:#231f20"/><path d="M0,209.91V171.31H6.45l12.07,29.61h.11l12.07-29.61h6.45v38.59H32.7v-32.2h-.11L19.3,209.91H17.86L4.58,177.71H4.47v32.2Z" style="fill:#231f20"/><path d="M58.44,210.74a12.38,12.38,0,0,1-9.54-4.08q-3.75-4.08-3.75-11.36T49,184a12.4,12.4,0,0,1,9.43-4.14A12.09,12.09,0,0,1,67.73,184q3.78,4.14,3.78,11.3t-3.69,11.36A12.09,12.09,0,0,1,58.44,210.74Zm0-4.08a7.62,7.62,0,0,0,6.15-3q2.45-3,2.45-8.35t-2.43-8.35a7.6,7.6,0,0,0-6.18-3,7.92,7.92,0,0,0-6.34,2.95q-2.48,3-2.48,8.41t2.48,8.41A7.91,7.91,0,0,0,58.44,206.66Z" style="fill:#231f20"/><path d="M98.36,209.91V207.1h-.11a10.62,10.62,0,0,1-3.39,2.51,12.29,12.29,0,0,1-14.39-3.06Q77,202.36,77,195.3t3.61-11.22a11.44,11.44,0,0,1,9.07-4.22,10.11,10.11,0,0,1,8.1,3.64h.11V169.66h4.52v40.25Zm-.44-9.7v-9a7.22,7.22,0,0,0-2-5,7,7,0,0,0-5.46-2.23,7.79,7.79,0,0,0-6.62,3q-2.26,3-2.26,8.38t2.26,8.38a7.79,7.79,0,0,0,6.62,3,7.71,7.71,0,0,0,5.35-1.93A5.9,5.9,0,0,0,97.92,200.2Z" style="fill:#231f20"/><path d="M132,200.92l3.64,2.37a14.53,14.53,0,0,1-4.71,5.32,12.89,12.89,0,0,1-7.53,2.12,12.55,12.55,0,0,1-9.76-4.22q-3.8-4.22-3.8-11.22t3.72-11.22a12.24,12.24,0,0,1,9.62-4.22,12,12,0,0,1,9.48,4.14q3.64,4.14,3.64,11.3v1.32H114.4a11.44,11.44,0,0,0,2.34,7.11,7.87,7.87,0,0,0,6.59,2.92,9.88,9.88,0,0,0,3.09-.47,10.93,10.93,0,0,0,2.21-.94,6.54,6.54,0,0,0,1.63-1.54,16.73,16.73,0,0,0,1-1.41Q131.5,202,132,200.92ZM114.51,193h17.37a10.68,10.68,0,0,0-2.21-6.4q-2.1-2.7-6.45-2.7a7.61,7.61,0,0,0-6.45,2.89A10.34,10.34,0,0,0,114.51,193Z" style="fill:#231f20"/><path d="M143.79,209.91V180.69h4.3v3.14h.11a6.14,6.14,0,0,1,2.59-2.7,7.15,7.15,0,0,1,3.47-.94,6.1,6.1,0,0,1,1.3.14q.63.14,1,.25l.28.17-.83,4.47a5,5,0,0,0-2.32-.44,4.6,4.6,0,0,0-4.08,1.85q-1.27,1.85-1.27,5.93v17.37Z" style="fill:#231f20"/><path d="M163.14,209.91V180.69h4.41v2.81h.11a8.77,8.77,0,0,1,3.47-2.62,11.41,11.41,0,0,1,4.74-1,10.27,10.27,0,0,1,7.64,2.92,10.79,10.79,0,0,1,2.89,7.94v19.19h-4.47V192.16q0-8.16-6.73-8.16a7.72,7.72,0,0,0-5.49,1.93,7,7,0,0,0-2.07,5.35v18.64Z" style="fill:#231f20"/><path d="M209.84,209.91V171.31h23.27v4.19H214.42v13.95h17.15v4H214.42v16.43Z" style="fill:#231f20"/><path d="M258,200.92l3.64,2.37a14.53,14.53,0,0,1-4.71,5.32,12.89,12.89,0,0,1-7.53,2.12,12.55,12.55,0,0,1-9.76-4.22q-3.8-4.22-3.8-11.22t3.72-11.22a12.24,12.24,0,0,1,9.62-4.22,12,12,0,0,1,9.48,4.14q3.64,4.14,3.64,11.3v1.32H240.39a11.44,11.44,0,0,0,2.34,7.11,7.87,7.87,0,0,0,6.59,2.92,9.88,9.88,0,0,0,3.09-.47,10.93,10.93,0,0,0,2.21-.94,6.54,6.54,0,0,0,1.63-1.54,16.73,16.73,0,0,0,1-1.41Q257.48,202,258,200.92ZM240.5,193h17.37a10.68,10.68,0,0,0-2.21-6.4q-2.1-2.7-6.45-2.7a7.61,7.61,0,0,0-6.45,2.89A10.34,10.34,0,0,0,240.5,193Z" style="fill:#231f20"/><path d="M269.77,209.91V180.69h4.3v3.14h.11a6.14,6.14,0,0,1,2.59-2.7,7.15,7.15,0,0,1,3.47-.94,6.1,6.1,0,0,1,1.3.14q.63.14,1,.25l.28.17-.83,4.47a5,5,0,0,0-2.32-.44,4.6,4.6,0,0,0-4.08,1.85q-1.27,1.85-1.27,5.93v17.37Z" style="fill:#231f20"/><path d="M290.72,201.42V184.71h-4.08v-4h4.19v-7.17h4.3v7.17h7.22v4h-7.17v16.15a6.76,6.76,0,0,0,.72,3.64q.72,1,2.87,1H301v4.36h-2.43q-4.14,0-6-2.12T290.72,201.42Z" style="fill:#231f20"/><path d="M309.52,174.79v-5.13h5.18v5.13Zm.33,35.12V180.69h4.52v29.22Z" style="fill:#231f20"/><path d="M324.08,209.91V169.66h4.58v40.25Z" style="fill:#231f20"/><path d="M338,174.79v-5.13h5.18v5.13Zm.33,35.12V180.69h4.52v29.22Z" style="fill:#231f20"/><path d="M353.63,201.42V184.71h-4.08v-4h4.19v-7.17H358v7.17h7.22v4H358.1v16.15a6.76,6.76,0,0,0,.72,3.64q.72,1,2.87,1h2.21v4.36h-2.43q-4.14,0-6-2.12T353.63,201.42Z" style="fill:#231f20"/><path d="M374,222.31l5.84-15.49-11-26.13h4.74l8.27,20.18H382l7.44-20.18H394l-15.71,41.63Z" style="fill:#231f20"/></svg>