<svg viewBox="0 0 307 34" fill="none" xmlns="http://www.w3.org/2000/svg">
<path fill-rule="evenodd" clip-rule="evenodd" d="M17 0C7.61111 0 0 7.61111 0 17C0 26.3887 7.61111 34 17 34C26.3889 34 34 26.3887 34 17C34 7.61111 26.3889 0 17 0ZM20.6774 21.6947C17.8896 21.6947 15.8711 19.7276 15.8711 17.0252C15.8711 14.3056 17.9581 12.3045 20.6774 12.3045C23.414 12.3045 25.501 14.3226 25.501 17.0252C25.501 19.7276 23.4826 21.6947 20.6774 21.6947ZM14.4519 14.6992C12.6903 14.6992 12.0405 15.7938 12.0405 17.5724V21.4722H9.68023V14.7075C9.59289 14.0428 9.24864 13.6446 8.5 13.6446V13.383L11.4659 12.5268H11.9893V13.8267C12.3824 12.9373 13.2721 12.3045 14.4519 12.3045V14.6992Z" fill="#262627"/>
<path fill-rule="evenodd" clip-rule="evenodd" d="M20.6814 14.3914C19.2614 14.3914 18.2353 15.486 18.2353 17.0254C18.2353 18.5477 19.2789 19.6081 20.6814 19.6081C22.1013 19.6081 23.144 18.5477 23.144 17.0254C23.144 15.503 22.1013 14.3914 20.6814 14.3914Z" fill="#262627"/>
<path fill-rule="evenodd" clip-rule="evenodd" d="M55.125 16.125V11H56.875V16.125H62V17.875H56.875V23H55.125V17.875H50V16.125H55.125Z" fill="#262627"/>
<path d="M111.778 25.3914C113.318 25.3914 114.6 24.7882 115.627 23.5816C116.653 22.3751 117.166 20.7098 117.166 18.5847C117.166 16.4391 116.658 14.7681 115.643 13.5707C114.627 12.3744 113.339 11.7768 111.778 11.7768C110.154 11.7768 108.822 12.3698 107.785 13.5559C106.747 14.7431 106.23 16.4175 106.23 18.5847C106.23 20.7508 106.759 22.4274 107.818 23.6135C108.876 24.7984 110.196 25.3914 111.778 25.3914ZM111.778 27.2491C109.554 27.2491 107.726 26.4796 106.293 24.943C104.861 23.4063 104.145 21.2869 104.145 18.5847C104.145 15.903 104.882 13.7881 106.358 12.2401C107.833 10.6932 109.64 9.91919 111.778 9.91919C113.874 9.91919 115.643 10.6932 117.086 12.2401C118.53 13.7881 119.251 15.903 119.251 18.5847C119.251 21.3074 118.55 23.4314 117.15 24.9589C115.749 26.4853 113.96 27.2491 111.778 27.2491ZM135.352 26.7839V25.2062H135.289C134.753 25.7833 134.037 26.2682 133.139 26.6609C132.241 27.0525 131.246 27.2483 130.155 27.2483C127.911 27.2483 126.12 26.464 124.783 24.8966C123.447 23.3293 122.779 21.2258 122.779 18.5839C122.779 15.9853 123.469 13.8909 124.847 12.303C126.226 10.714 127.996 9.91953 130.155 9.91953C132.229 9.91953 133.855 10.6013 135.031 11.9627H135.095V4.19527H137.18V26.7839H135.352ZM135.095 21.771V15.9853C135.095 14.9324 134.673 13.9694 133.828 13.0918C132.983 12.2142 131.867 11.7772 130.476 11.7772C128.659 11.7772 127.269 12.3804 126.307 13.587C125.345 14.7935 124.864 16.4599 124.864 18.5839C124.864 20.7295 125.339 22.4016 126.291 23.5967C127.242 24.7931 128.638 25.3918 130.476 25.3918C131.781 25.3918 132.877 25.0309 133.764 24.3082C134.651 23.5876 135.095 22.7419 135.095 21.771ZM155.045 21.9562L156.809 22.885C156.252 24.1234 155.366 25.1604 154.146 25.9947C152.929 26.8313 151.442 27.2491 149.689 27.2491C147.401 27.2491 145.519 26.4591 144.043 24.8815C142.569 23.3027 141.83 21.2038 141.83 18.5847C141.83 15.9644 142.552 13.8655 143.995 12.2868C145.439 10.7091 147.294 9.91919 149.56 9.91919C151.848 9.91919 153.687 10.683 155.077 12.2094C156.467 13.7369 157.162 15.8609 157.162 18.5847V19.172H143.948C143.948 20.843 144.434 22.2977 145.407 23.5349C146.379 24.7734 147.786 25.3914 149.624 25.3914C150.352 25.3914 151.015 25.2992 151.613 25.1137C152.211 24.9282 152.682 24.7267 153.024 24.5104C153.366 24.293 153.698 23.9891 154.019 23.5975C154.34 23.2048 154.547 22.9157 154.644 22.7302L155.045 21.9562ZM144.012 17.4703H155.013C155.013 16.8102 154.921 16.1659 154.74 15.5365C154.558 14.907 154.27 14.298 153.874 13.7107C153.478 13.1234 152.906 12.6544 152.158 12.3027C151.41 11.9521 150.544 11.7768 149.56 11.7768C148.576 11.7768 147.704 11.9726 146.946 12.3653C146.187 12.7557 145.604 13.2577 145.198 13.8655C144.793 14.4733 144.493 15.0868 144.301 15.7061C144.108 16.3253 144.012 16.9137 144.012 17.4703ZM161.812 26.7842V10.3843H163.832V12.1486H163.897C164.261 11.4668 164.768 10.9568 165.42 10.6165C166.073 10.2761 166.741 10.1054 167.425 10.1054C167.703 10.1054 167.965 10.1316 168.211 10.1828C168.456 10.2352 168.633 10.2807 168.74 10.3217L168.868 10.415L168.451 12.457C168.216 12.2931 167.767 12.2089 167.104 12.2089C166.164 12.2089 165.393 12.5401 164.795 13.1992C164.197 13.8605 163.897 14.8303 163.897 16.1085V26.7842H161.812ZM172.877 26.7842V10.3843H174.962V11.963H175.026C175.475 11.3643 176.165 10.8737 177.095 10.4924C178.025 10.1111 178.982 9.91987 179.965 9.91987C181.804 9.91987 183.311 10.4662 184.488 11.5601C185.663 12.654 186.252 14.1394 186.252 16.0152V26.7842H184.167V16.7585C184.167 15.1296 183.797 13.8912 183.06 13.0455C182.323 12.1998 181.248 11.7764 179.837 11.7764C178.405 11.7764 177.233 12.1634 176.325 12.9374C175.416 13.7114 174.962 14.7893 174.962 16.1711V26.7842H172.877ZM200.204 26.7842V5.12443H213.482V6.98091H202.289V15.4893H212.584V17.2844H202.289V26.7842H200.204ZM229.166 21.9562L230.93 22.885C230.373 24.1234 229.487 25.1604 228.267 25.9947C227.049 26.8313 225.563 27.2491 223.809 27.2491C221.522 27.2491 219.64 26.4591 218.164 24.8815C216.689 23.3027 215.951 21.2038 215.951 18.5847C215.951 15.9644 216.673 13.8655 218.116 12.2868C219.56 10.7091 221.414 9.91919 223.681 9.91919C225.969 9.91919 227.808 10.683 229.198 12.2094C230.587 13.7369 231.282 15.8609 231.282 18.5847V19.172H218.069C218.069 20.843 218.555 22.2977 219.528 23.5349C220.5 24.7734 221.906 25.3914 223.745 25.3914C224.473 25.3914 225.136 25.2992 225.734 25.1137C226.332 24.9282 226.803 24.7267 227.145 24.5104C227.487 24.293 227.818 23.9891 228.139 23.5975C228.46 23.2048 228.668 22.9157 228.765 22.7302L229.166 21.9562ZM218.132 17.4703H229.134C229.134 16.8102 229.042 16.1659 228.86 15.5365C228.679 14.907 228.391 14.298 227.994 13.7107C227.599 13.1234 227.027 12.6544 226.279 12.3027C225.531 11.9521 224.665 11.7768 223.681 11.7768C222.697 11.7768 221.825 11.9726 221.066 12.3653C220.308 12.7557 219.725 13.2577 219.319 13.8655C218.913 14.4733 218.614 15.0868 218.421 15.7061C218.229 16.3253 218.132 16.9137 218.132 17.4703ZM235.933 26.7842V10.3843H237.953V12.1486H238.018C238.381 11.4668 238.889 10.9568 239.541 10.6165C240.193 10.2761 240.861 10.1054 241.545 10.1054C241.824 10.1054 242.086 10.1316 242.331 10.1828C242.577 10.2352 242.754 10.2807 242.861 10.3217L242.988 10.415L242.572 12.457C242.337 12.2931 241.888 12.2089 241.225 12.2089C240.284 12.2089 239.514 12.5401 238.916 13.1992C238.317 13.8605 238.018 14.8303 238.018 16.1085V26.7842H235.933ZM247.479 22.359V12.24H245.105V10.3835H247.543V6.36091H249.564V10.3835H253.733V12.24H249.564V22.0813C249.564 23.0704 249.702 23.7727 249.98 24.1848C250.257 24.598 250.804 24.8028 251.616 24.8028H252.835V26.7845H251.552C248.836 26.7845 247.479 25.3094 247.479 22.359ZM258.48 26.7844V10.3845H260.565V26.7844H258.48ZM258.224 7.69141V5.12351H260.822V7.69141H258.224ZM266.593 26.7844V4.1947H268.678V26.7844H266.593ZM274.708 26.7844V10.3845H276.793V26.7844H274.708ZM274.451 7.69141V5.12351H277.049V7.69141H274.451ZM283.432 22.359V12.24H281.058V10.3835H283.496V6.36091H285.517V10.3835H289.686V12.24H285.517V22.0813C285.517 23.0704 285.655 23.7727 285.933 24.1848C286.21 24.598 286.757 24.8028 287.57 24.8028H288.788V26.7845H287.505C284.789 26.7845 283.432 25.3094 283.432 22.359ZM294.785 33.746L298.249 25.3297L292.091 10.3845H294.304L299.243 22.9781H299.308L304.247 10.3845H306.46L296.838 33.746H294.785ZM95.9664 5.12454H99.1743V26.7843H97.0896V7.59909H97.0247L88.8793 26.7843H88.4298L80.2832 7.59909H80.2183V26.7843H78.1335V5.12454H81.3733L88.6221 22.5136H88.687L95.9664 5.12454Z" fill="#262627"/>
</svg>
