<svg width="512" height="194" viewBox="0 0 512 194" fill="none" xmlns="http://www.w3.org/2000/svg">
<path fill-rule="evenodd" clip-rule="evenodd" d="M269.361 66.7604C265.074 63.1547 257.757 61.3539 247.406 61.3539H224.059V133.5H241.516V110.889H249.336C258.827 110.889 265.787 108.8 270.217 104.618C275.205 99.9338 277.716 93.6958 277.716 85.9084C277.716 77.8331 274.93 71.4491 269.361 66.7604ZM248.902 94.5637H241.516V77.679H248.152C256.223 77.679 260.259 80.51 260.259 86.172C260.259 91.7611 256.471 94.5597 248.902 94.5597V94.5637ZM307.589 61.3499H289.385V133.496H328.688V117.167H307.589V61.3499ZM364.352 61.3499L335.757 133.496H355.356L359.104 123.008H383.951L387.378 133.496H407.196L378.804 61.3499H364.352ZM364.137 108.403L371.637 83.7425L379.019 108.403H364.137Z" fill="white" fill-opacity="0.9"/>
<path fill-rule="evenodd" clip-rule="evenodd" d="M416.289 133.496H434.496V61.351H416.289V133.496ZM505.184 74.8731C502.884 71.5386 499.932 68.7058 496.504 66.5465C491.009 63.0828 483.509 61.355 474.014 61.355H450.027V133.496H478.086C488.226 133.496 496.362 130.182 502.503 123.547C508.644 116.916 511.71 108.115 511.71 97.1517C511.71 88.4317 509.532 81.0055 505.18 74.8731H505.184ZM476.05 117.163H468.234V77.6838H476.16C481.728 77.6838 486.007 79.4278 489.009 82.9036C492.01 86.3795 493.511 91.3113 493.511 97.6952C493.511 110.674 487.691 117.163 476.05 117.163ZM76.2505 0.78125L17.248 16.2339L0.987471 75.5666L21.3242 96.446L0.658936 116.981L15.9622 176.573L74.7092 192.987L95.3786 172.448L115.715 193.323L174.718 177.871L190.974 118.534L170.642 97.6628L191.307 77.1281L176.004 17.5318L117.249 1.11788L96.5873 21.6525L76.2505 0.78125ZM40.0427 27.647L71.1237 19.5029L84.7154 33.455L64.8937 53.1501L40.0427 27.647ZM108.273 33.6416L122.083 19.9207L153.031 28.5677L127.774 53.6611L108.273 33.6416ZM19.6085 70.6956L28.1708 39.4454L53.0137 64.9485L33.1961 84.6436L19.6085 70.6956ZM139.451 65.6542L164.708 40.5527L172.763 71.9448L158.956 85.6697L139.451 65.6542ZM76.575 65.1391L96.3967 45.444L115.894 65.4636L96.0762 85.1587L76.575 65.1391ZM44.8815 96.6326L64.699 76.9375L84.2084 96.9571L64.3827 116.652L44.8815 96.6326ZM107.762 97.1477L127.579 77.4526L147.08 97.4721L127.259 117.167L107.762 97.1477ZM19.1948 122.16L33.0096 108.431L52.5067 128.455L27.2582 153.544L19.1948 122.16ZM76.0639 128.641L95.8856 108.946L115.387 128.966L95.5692 148.661L76.0639 128.641ZM138.94 129.16L158.762 109.465L172.353 123.413L163.795 154.663L138.94 129.16ZM38.9354 165.541L64.188 140.44L83.6973 160.459L69.8826 174.188L38.9354 165.541ZM107.25 160.65L127.068 140.955L151.915 166.462L120.838 174.602L107.25 160.65Z" fill="white" fill-opacity="0.9"/>
</svg>
