<svg width="1609" height="804" viewBox="0 0 1609 804" fill="none" xmlns="http://www.w3.org/2000/svg">
<path d="M300.756 0C121.157 0 0 134.23 0 316.038C0 497.846 121.157 632.076 300.756 632.076C479.431 632.076 600.589 497.846 600.589 316.038C600.589 134.23 479.431 0 300.756 0ZM300.756 550.825C175.903 550.825 95.1702 451.072 95.1702 316.038C95.1702 181.003 175.903 81.2504 300.756 81.2504C425.61 81.2504 505.418 181.003 505.418 316.038C505.418 451.072 425.61 550.825 300.756 550.825Z" fill="white"/>
<path d="M861.151 178.59C799.244 178.59 745.307 207.435 718.858 251.106V185.6H633.158V804H718.858V563.811C744.498 605.758 797.512 632.765 856.762 632.765C992.01 632.765 1072.51 536.689 1072.51 405.677C1072.4 274.665 995.475 178.59 861.151 178.59ZM848.793 558.525C765.75 558.525 711.812 497.386 711.812 405.677C711.812 313.969 765.75 252.83 848.793 252.83C931.027 252.83 985.773 313.969 985.773 405.677C985.773 497.386 931.027 558.525 848.793 558.525Z" fill="white"/>
<path d="M1295.19 178.59C1189.97 178.59 1110.39 243.176 1103.35 329.713H1182.93C1185.58 285.123 1230.63 246.739 1292.54 246.739C1361.49 246.739 1400.41 283.399 1400.41 336.724C1400.41 352.468 1390.71 362.926 1370.38 362.926H1277.52C1172.3 362.926 1104.27 415.331 1104.27 500.029C1104.27 578.636 1164.33 632.765 1255.46 632.765C1322.68 632.765 1379.27 601.276 1400.41 554.158V625.754H1486.11V341.895C1486.22 244.096 1410.11 178.59 1295.19 178.59ZM1400.41 432.799C1400.41 514.05 1353.52 565.535 1272.21 565.535C1222.66 565.535 1189.16 538.413 1189.16 498.305C1189.16 451.991 1227.16 422.341 1285.49 422.341H1400.41V432.799V432.799Z" fill="white"/>
<path d="M1609 8.5H1523.3V625.75H1609V8.5Z" fill="white"/>
</svg>
