<svg width="353" height="387" viewBox="0 0 353 387" fill="none" xmlns="http://www.w3.org/2000/svg">
<path d="M299.904 0C299.904 0 294.302 47.335 280.483 85.782C270.772 112.753 250.169 175.446 197.321 201.565C186.677 206.844 159.818 219.682 128.85 210.317C109.888 204.584 93.1499 192.247 81.1695 175.174C53.1585 133.049 52.5672 43.7934 52.5672 7.90052V0H0V386.24H50.4197V164.447C62.5372 184.502 78.1728 201.725 96.4198 215.119C112.839 227.897 131.45 236.909 151.135 241.613C167.277 245.442 183.903 246.191 200.278 243.826C230.689 238.811 258.807 223.189 280.452 199.284C288.939 190.09 296.37 179.798 302.58 168.635V386.581H353V0H299.904Z" fill="#231F20"/>
</svg>
