<svg width="255" height="855" viewBox="0 0 255 855" fill="none" xmlns="http://www.w3.org/2000/svg">
<path d="M216.256 0C216.256 0 212.216 39.8041 202.252 72.1342C195.25 94.8139 180.393 147.533 142.286 169.497C134.61 173.935 115.242 184.731 92.912 176.856C79.2388 172.035 67.169 161.661 58.5301 147.304C38.3318 111.881 37.9054 36.8259 37.9054 6.64356V0H0V324.79H36.3569V138.283C45.0946 155.148 56.3692 169.631 69.5269 180.894C81.3662 191.639 94.7867 199.217 108.981 203.173C120.621 206.393 132.609 207.023 144.418 205.034C166.346 200.816 186.622 187.68 202.23 167.578C208.35 159.847 213.708 151.192 218.186 141.806V325.076H254.543V0H216.256Z" fill="white"/>
<path d="M216.256 203.416C216.256 203.416 212.216 243.339 202.252 275.766C195.25 298.514 180.393 351.391 142.286 373.42C134.61 377.872 115.242 388.7 92.912 380.802C79.2388 375.966 67.169 365.561 58.5301 351.161C38.3318 315.632 37.9054 240.352 37.9054 210.079V203.416H0V529.178H36.3569V342.113C45.0946 359.028 56.3692 373.555 69.5269 384.851C81.3662 395.629 94.7867 403.23 108.981 407.197C120.621 410.427 132.609 411.058 144.418 409.064C166.346 404.834 186.622 391.658 202.23 371.496C208.35 363.741 213.708 355.061 218.186 345.646V529.466H254.543V203.416H216.256Z" fill="white"/>
<path d="M216.256 367.9C216.256 367.9 212.216 407.704 202.252 440.035C195.25 462.714 180.393 515.433 142.286 537.397C134.61 541.836 115.242 552.631 92.912 544.757C79.2388 539.935 67.169 529.561 58.5301 515.204C38.3318 479.781 37.9054 404.726 37.9054 374.544V367.9H0V692.69H36.3569V506.184C45.0946 523.048 56.3692 537.532 69.5269 548.794C81.3662 559.539 94.7867 567.118 108.981 571.073C120.621 574.293 132.609 574.923 144.418 572.934C166.346 568.717 186.622 555.58 202.23 535.478C208.35 527.747 213.708 519.093 218.186 509.706V692.977H254.543V367.9H216.256Z" fill="white"/>
<path d="M216.256 529.466C216.256 529.466 212.216 569.27 202.252 601.6C195.25 624.28 180.393 676.999 142.286 698.963C134.61 703.401 115.242 714.197 92.912 706.322C79.2388 701.501 67.169 691.126 58.5301 676.77C38.3318 641.347 37.9054 566.292 37.9054 536.109V529.466H0V854.256H36.3569V667.749C45.0946 684.614 56.3692 699.097 69.5269 710.36C81.3662 721.105 94.7867 728.683 108.981 732.639C120.621 735.859 132.609 736.488 144.418 734.5C166.346 730.282 186.622 717.146 202.23 697.044C208.35 689.313 213.708 680.658 218.186 671.271V854.542H254.543V529.466H216.256Z" fill="white"/>
</svg>
